<svg width="35" height="35" viewBox="0 0 35 35" fill="none" xmlns="http://www.w3.org/2000/svg">
<path d="M17.5 12.9439C14.9912 12.9439 12.9439 14.9912 12.9439 17.5C12.9439 20.0088 14.9912 22.0562 17.5 22.0562C20.0088 22.0562 22.0562 20.0088 22.0562 17.5C22.0562 14.9912 20.0088 12.9439 17.5 12.9439ZM31.165 17.5C31.165 15.6133 31.1821 13.7437 31.0762 11.8604C30.9702 9.67286 30.4712 7.73145 28.8716 6.13185C27.2686 4.52882 25.3306 4.03321 23.1431 3.92726C21.2564 3.8213 19.3867 3.83839 17.5034 3.83839C15.6167 3.83839 13.7471 3.8213 11.8638 3.92726C9.67628 4.03321 7.73487 4.53224 6.13526 6.13185C4.53224 7.73487 4.03663 9.67286 3.93067 11.8604C3.82472 13.7471 3.84181 15.6167 3.84181 17.5C3.84181 19.3833 3.82472 21.2564 3.93067 23.1397C4.03663 25.3272 4.53565 27.2686 6.13526 28.8682C7.73829 30.4712 9.67628 30.9668 11.8638 31.0728C13.7505 31.1787 15.6201 31.1616 17.5034 31.1616C19.3901 31.1616 21.2598 31.1787 23.1431 31.0728C25.3306 30.9668 27.272 30.4678 28.8716 28.8682C30.4746 27.2651 30.9702 25.3272 31.0762 23.1397C31.1856 21.2564 31.165 19.3867 31.165 17.5ZM17.5 24.5103C13.6206 24.5103 10.4898 21.3794 10.4898 17.5C10.4898 13.6206 13.6206 10.4898 17.5 10.4898C21.3794 10.4898 24.5103 13.6206 24.5103 17.5C24.5103 21.3794 21.3794 24.5103 17.5 24.5103ZM24.7974 11.8399C23.8916 11.8399 23.1602 11.1084 23.1602 10.2026C23.1602 9.29688 23.8916 8.56544 24.7974 8.56544C25.7031 8.56544 26.4346 9.29688 26.4346 10.2026C26.4349 10.4177 26.3927 10.6307 26.3105 10.8295C26.2283 11.0283 26.1077 11.2088 25.9557 11.3609C25.8036 11.513 25.623 11.6336 25.4242 11.7158C25.2255 11.798 25.0125 11.8401 24.7974 11.8399Z" fill="white"/>
</svg>
