<svg width="35" height="35" viewBox="0 0 35 35" fill="none" xmlns="http://www.w3.org/2000/svg">
<path d="M2.92249 32.0833L4.89416 24.8383C3.59499 22.6112 2.91243 20.0783 2.91666 17.5C2.91666 9.44562 9.44562 2.91666 17.5 2.91666C25.5544 2.91666 32.0833 9.44562 32.0833 17.5C32.0833 25.5544 25.5544 32.0833 17.5 32.0833C14.9228 32.0875 12.391 31.4054 10.1646 30.1073L2.92249 32.0833ZM12.2369 10.6575C12.0485 10.6692 11.8645 10.7188 11.6958 10.8033C11.5376 10.8929 11.3932 11.0049 11.2671 11.1358C11.0921 11.3006 10.9929 11.4435 10.8865 11.5821C10.3475 12.2835 10.0576 13.1446 10.0625 14.0292C10.0654 14.7437 10.2521 15.4394 10.5437 16.0898C11.1402 17.4052 12.1217 18.7979 13.4181 20.0885C13.7302 20.3992 14.035 20.7112 14.3631 21.0014C15.9722 22.4182 17.8897 23.4398 19.9631 23.9852L20.7929 24.1121C21.0627 24.1267 21.3325 24.1062 21.6037 24.0931C22.0285 24.0712 22.4432 23.9562 22.8185 23.7562C23.0095 23.6579 23.1959 23.5508 23.3771 23.4354C23.3771 23.4354 23.4398 23.3946 23.5594 23.3042C23.7562 23.1583 23.8773 23.0548 24.0406 22.8842C24.1617 22.7587 24.2667 22.6114 24.3469 22.4437C24.4606 22.206 24.5744 21.7525 24.621 21.3748C24.656 21.086 24.6458 20.9285 24.6415 20.8308C24.6356 20.6748 24.5058 20.5129 24.3644 20.4444L23.5156 20.0637C23.5156 20.0637 22.2469 19.511 21.4725 19.1581C21.3908 19.1225 21.3034 19.1023 21.2144 19.0983C21.1146 19.0881 21.0138 19.0993 20.9187 19.1312C20.8236 19.1632 20.7365 19.2151 20.6631 19.2835V19.2806C20.6558 19.2806 20.5581 19.3637 19.5037 20.6412C19.4432 20.7226 19.3599 20.784 19.2643 20.8178C19.1687 20.8515 19.0652 20.8561 18.9671 20.8308C18.8721 20.8054 18.779 20.7733 18.6885 20.7346C18.5077 20.6587 18.445 20.6296 18.321 20.5756L18.3137 20.5727C17.4794 20.2084 16.707 19.7164 16.0242 19.1144C15.8404 18.9539 15.6698 18.7789 15.4948 18.6098C14.921 18.0603 14.421 17.4388 14.0073 16.7606L13.9212 16.6221C13.8594 16.529 13.8095 16.4286 13.7725 16.3231C13.7171 16.1087 13.8615 15.9367 13.8615 15.9367C13.8615 15.9367 14.2158 15.5487 14.3806 15.3387C14.5178 15.1642 14.6459 14.9826 14.7642 14.7948C14.9362 14.5177 14.9902 14.2333 14.8998 14.0131C14.4915 13.0156 14.0685 12.0225 13.634 11.0367C13.5479 10.8412 13.2927 10.7012 13.0608 10.6735C12.9821 10.6648 12.9033 10.656 12.8246 10.6502C12.6287 10.6405 12.4325 10.6424 12.2369 10.656V10.6575Z" fill="white"/>
</svg>
